<svg xmlns="http://www.w3.org/2000/svg" width="17" height="18" viewBox="0 0 17 18" fill="none">
  <path d="M10.5267 0.5C10.8998 0.500093 11.2634 0.612443 11.5661 0.821137C11.8687 1.02983 12.095 1.32429 12.2129 1.6628L12.6956 3.05H15.6111C15.8469 3.05 16.073 3.13955 16.2397 3.29896C16.4064 3.45837 16.5 3.67457 16.5 3.9C16.5 4.12543 16.4064 4.34163 16.2397 4.50104C16.073 4.66045 15.8469 4.75 15.6111 4.75L15.6084 4.81035L14.8378 15.1319C14.7897 15.775 14.4886 16.3768 13.9951 16.8162C13.5017 17.2556 12.8525 17.4999 12.1782 17.5H4.82178C4.14752 17.4999 3.49832 17.2556 3.00486 16.8162C2.5114 16.3768 2.21032 15.775 2.16222 15.1319L1.39156 4.8095C1.38995 4.7897 1.38906 4.76986 1.38889 4.75C1.15314 4.75 0.927048 4.66045 0.760349 4.50104C0.59365 4.34163 0.5 4.12543 0.5 3.9C0.5 3.67457 0.59365 3.45837 0.760349 3.29896C0.927048 3.13955 1.15314 3.05 1.38889 3.05H4.30444L4.78711 1.6628C4.90506 1.32415 5.1315 1.02959 5.43431 0.820888C5.73712 0.612182 6.10095 0.499914 6.47422 0.5H10.5267ZM13.8307 4.75H3.16933L3.93556 15.0103C3.95151 15.2247 4.0518 15.4254 4.21623 15.5719C4.38066 15.7184 4.59703 15.7999 4.82178 15.8H12.1782C12.403 15.7999 12.6193 15.7184 12.7838 15.5719C12.9482 15.4254 13.0485 15.2247 13.0644 15.0103L13.8307 4.75ZM6.72222 7.3C6.93994 7.30003 7.15008 7.37646 7.31278 7.51481C7.47547 7.65315 7.57942 7.84379 7.60489 8.05055L7.61111 8.15V12.4C7.61086 12.6166 7.52411 12.825 7.36858 12.9826C7.21305 13.1401 7.00049 13.2349 6.77432 13.2476C6.54815 13.2603 6.32544 13.1899 6.1517 13.0509C5.97797 12.9118 5.86631 12.7146 5.83956 12.4995L5.83333 12.4V8.15C5.83333 7.92457 5.92698 7.70837 6.09368 7.54896C6.26038 7.38955 6.48647 7.3 6.72222 7.3ZM10.2778 7.3C10.5135 7.3 10.7396 7.38955 10.9063 7.54896C11.073 7.70837 11.1667 7.92457 11.1667 8.15V12.4C11.1667 12.6254 11.073 12.8416 10.9063 13.001C10.7396 13.1604 10.5135 13.25 10.2778 13.25C10.042 13.25 9.81594 13.1604 9.64924 13.001C9.48254 12.8416 9.38889 12.6254 9.38889 12.4V8.15C9.38889 7.92457 9.48254 7.70837 9.64924 7.54896C9.81594 7.38955 10.042 7.3 10.2778 7.3ZM10.5267 2.2H6.47333L6.17733 3.05H10.8227L10.5267 2.2Z" fill="#FF6D6D"/>
</svg>